<svg width="42" height="41" viewBox="0 0 42 41" fill="none" xmlns="http://www.w3.org/2000/svg">
<path d="M35.6981 4.48291H6.23898C5.53052 4.48291 4.95815 5.05528 4.95815 5.76374V35.2229C4.95815 35.9313 5.53052 36.5037 6.23898 36.5037H35.6981C36.4066 36.5037 36.9789 35.9313 36.9789 35.2229V5.76374C36.9789 5.05528 36.4066 4.48291 35.6981 4.48291ZM14.4563 31.7686H9.70523V16.4867H14.4563V31.7686ZM12.0828 14.3973C11.5381 14.3973 11.0057 14.2358 10.5529 13.9332C10.1 13.6307 9.74704 13.2006 9.53861 12.6974C9.33018 12.1942 9.27565 11.6405 9.3819 11.1063C9.48816 10.5721 9.75043 10.0815 10.1356 9.69634C10.5207 9.31121 11.0114 9.04894 11.5455 8.94268C12.0797 8.83643 12.6334 8.89096 13.1366 9.09939C13.6398 9.30782 14.0699 9.66078 14.3725 10.1136C14.6751 10.5665 14.8366 11.0989 14.8366 11.6436C14.8326 13.1645 13.5998 14.3973 12.0828 14.3973ZM32.2439 31.7686H27.4968V24.3358C27.4968 22.5626 27.4648 20.2852 25.0272 20.2852C22.5576 20.2852 22.1773 22.2144 22.1773 24.2077V31.7686H17.4342V16.4867H21.9892V18.5761H22.0532C22.6857 17.3753 24.2347 16.1065 26.5482 16.1065C31.3593 16.1065 32.2439 19.2725 32.2439 23.3872V31.7686Z" fill="#EDEEF0"/>
</svg>
