<svg width="42" height="41" viewBox="0 0 42 41" fill="none" xmlns="http://www.w3.org/2000/svg">
<path d="M35.7103 4.48291H6.25121C5.54275 4.48291 4.97038 5.05528 4.97038 5.76374V35.2229C4.97038 35.9313 5.54275 36.5037 6.25121 36.5037H35.7103C36.4188 36.5037 36.9912 35.9313 36.9912 35.2229V5.76374C36.9912 5.05528 36.4188 4.48291 35.7103 4.48291ZM32.0119 13.829H29.4543C27.449 13.829 27.0607 14.7816 27.0607 16.1825V19.2685H31.8478L31.2234 24.0996H27.0607V36.5037H22.0695V24.1036H17.8948V19.2685H22.0695V15.7062C22.0695 11.5715 24.5951 9.31805 28.2855 9.31805C30.0547 9.31805 31.5716 9.45013 32.0159 9.51017V13.829H32.0119Z" fill="#EDEEF0"/>
</svg>
