<svg width="46" height="46" viewBox="0 0 46 46" fill="none" xmlns="http://www.w3.org/2000/svg">
<path fill-rule="evenodd" clip-rule="evenodd" d="M3.13125 11.6467C3.3959 10.4686 4.04647 9.41683 4.97642 8.66349C5.90637 7.91014 7.06057 7.49992 8.25 7.5H39.75C40.9394 7.49992 42.0936 7.91014 43.0236 8.66349C43.9535 9.41683 44.6041 10.4686 44.8687 11.6467L24 24.604L3.13125 11.6467ZM3 14.692V33.636L18.2329 24.148L3 14.692ZM20.7476 25.7133L3.50138 36.452C3.92748 37.3648 4.60001 38.1358 5.44068 38.6754C6.28135 39.215 7.25558 39.501 8.25 39.5H39.75C40.7443 39.5002 41.7181 39.2136 42.5583 38.6736C43.3985 38.1335 44.0705 37.3622 44.496 36.4493L27.2498 25.7107L24 27.7293L20.7476 25.7107V25.7133ZM29.7671 24.1507L45 33.636V14.692L29.7671 24.148V24.1507Z" fill="#C0DA67"/>
</svg>
