<svg width="47" height="46" viewBox="0 0 47 46" fill="none" xmlns="http://www.w3.org/2000/svg">
<path d="M23.5 26.8333C27.7282 26.8333 31.1667 23.3948 31.1667 19.1667C31.1667 14.9385 27.7282 11.5 23.5 11.5C19.2718 11.5 15.8333 14.9385 15.8333 19.1667C15.8333 23.3948 19.2718 26.8333 23.5 26.8333ZM23.5 15.3333C25.6141 15.3333 27.3333 17.0526 27.3333 19.1667C27.3333 21.2807 25.6141 23 23.5 23C21.3859 23 19.6667 21.2807 19.6667 19.1667C19.6667 17.0526 21.3859 15.3333 23.5 15.3333Z" fill="#C0DA67"/>
<path d="M22.3884 41.8102C22.7128 42.0419 23.1015 42.1664 23.5001 42.1664C23.8987 42.1664 24.2874 42.0419 24.6117 41.8102C25.1944 41.3981 38.889 31.51 38.8334 19.1667C38.8334 10.7123 31.9545 3.83337 23.5001 3.83337C15.0457 3.83337 8.16675 10.7123 8.16675 19.1571C8.11117 31.51 21.8057 41.3981 22.3884 41.8102ZM23.5001 7.66671C29.8423 7.66671 35.0001 12.8245 35.0001 19.1763C35.0403 27.6825 26.5897 35.3204 23.5001 37.8255C20.4123 35.3185 11.9598 27.6786 12.0001 19.1667C12.0001 12.8245 17.1578 7.66671 23.5001 7.66671Z" fill="#C0DA67"/>
</svg>
