<svg width="179" height="38" viewBox="0 0 179 38" fill="none" xmlns="http://www.w3.org/2000/svg">
<path d="M19.7838 37.6761H12.1652V22.7349H8.0996V37.6761H0.473816V0.323242H8.09238V16.2975H12.158V0.323242H19.7766V37.6761H19.7838Z" fill="#C0DA67"/>
<path d="M44.806 32.3662C44.806 35.1984 43.6217 37.6693 39.4477 37.6693H30.8037C26.6297 37.6693 25.4454 35.1984 25.4454 32.3662V5.16442C25.4454 2.23111 26.9908 0.32373 30.4932 0.32373H39.7654C43.2678 0.32373 44.8132 2.23111 44.8132 5.16442V32.3662H44.806ZM33.6345 6.8695C33.1218 6.8695 32.9629 7.1296 32.9629 7.592V30.3649C32.9629 30.9285 33.064 31.138 33.685 31.138H36.5158C37.1369 31.138 37.238 30.9357 37.238 30.3649V7.592C37.238 7.1296 37.0863 6.8695 36.5664 6.8695H33.6345Z" fill="#C0DA67"/>
<path d="M69.6764 22.4752C69.6764 24.1225 68.492 25.7698 66.3256 25.7698L70.2396 37.6692H62.5127L58.9093 25.7698H57.9272V37.6692H50.4675V0.316406H64.6286C68.131 0.316406 69.6764 2.22378 69.6764 5.1571V22.4752ZM57.9344 6.8694V19.7514H61.5884C62.1517 19.7514 62.3105 19.5491 62.3105 18.9784V7.64247C62.3105 7.18008 62.1011 6.8694 61.5884 6.8694H57.9344Z" fill="#C0DA67"/>
<path d="M75.4463 0.32373H89.9685L91.2539 7.28133H83.1154V16.1391H89.2969V22.5765H83.1154V30.719H90.9434L89.658 37.6766H75.4463V0.32373Z" fill="#C0DA67"/>
<path d="M102.216 37.6766C97.9409 37.6766 96.3955 36.0293 96.3955 31.9039V4.91156C96.3955 1.97824 98.302 0.32373 100.772 0.32373H110.607L111.893 7.28133H104.736C104.224 7.28133 104.065 7.54143 104.065 8.00382V30.0037C104.065 30.4661 104.216 30.7262 104.736 30.7262H111.893L110.557 37.6838H102.216V37.6766Z" fill="#C0DA67"/>
<path d="M136.308 32.3662C136.308 35.1984 135.124 37.6693 130.95 37.6693H122.299C118.125 37.6693 116.94 35.1984 116.94 32.3662V5.16442C116.94 2.23111 118.486 0.32373 121.988 0.32373H131.26C134.763 0.32373 136.308 2.23111 136.308 5.16442V32.3662ZM125.137 6.8695C124.624 6.8695 124.465 7.1296 124.465 7.592V30.3649C124.465 30.9285 124.566 31.138 125.187 31.138H128.018C128.639 31.138 128.74 30.9357 128.74 30.3649V7.592C128.74 7.1296 128.588 6.8695 128.069 6.8695H125.137Z" fill="#C0DA67"/>
<path d="M141.97 0.32373H156.492L157.777 7.28133H149.639V16.1391H155.82V22.5765H149.639V37.6693H141.97V0.32373Z" fill="#C0DA67"/>
<path d="M162.666 0.32373H177.188L178.474 7.28133H170.335V16.1391H176.517V22.5765H170.335V37.6693H162.666V0.32373Z" fill="#C0DA67"/>
</svg>
