<svg width="60" height="56" viewBox="0 0 60 56" fill="none" xmlns="http://www.w3.org/2000/svg">
<path d="M4.11946 34.3915C0.592576 21.7011 8.01492 8.54901 20.6991 5.0204C33.3833 1.49179 46.529 8.91776 50.0559 21.6082C53.5828 34.2986 46.1604 47.4507 33.4762 50.9793C20.792 54.5079 7.64635 47.0819 4.11946 34.3915ZM0.994108 35.2609C4.99444 49.6572 19.956 58.1115 34.3452 54.1062C48.7344 50.1039 57.1846 35.135 53.1813 20.7388C49.1779 6.34251 34.2194 -2.11177 19.8301 1.89352C5.44092 5.89881 -3.00922 20.8647 0.994108 35.2609Z" fill="#C0DA67"/>
<path d="M13.7502 41.227C13.7502 41.227 25.8082 44.045 28.6668 33.6721C31.5255 23.2991 36.1881 20.9367 36.1881 20.9367C40.8926 18.967 43.5295 20.418 44.3595 23.401C45.7979 28.5755 41.7945 38.3639 33.683 42.9178C20.8939 50.092 14.1008 41.3409 13.7502 41.227ZM11.8744 41.7456C11.9793 42.1264 12.192 42.4471 12.4677 42.69C12.5037 42.7229 12.5426 42.7529 12.5816 42.7829C12.6086 42.8099 12.6385 42.8399 12.6745 42.8758C18.5716 48.6349 26.3715 49.2525 34.6359 44.6147C43.3707 39.713 47.9643 29.0972 46.2354 22.8794C45.696 20.9367 44.5633 19.4977 42.9632 18.7212C40.9555 17.7469 38.4235 17.8878 35.4389 19.1409C35.397 19.1589 35.352 19.1799 35.3101 19.2009C34.7557 19.4827 29.7935 22.2648 26.791 33.1534C24.5227 41.3829 15.0477 39.5181 14.2297 39.3382C13.912 39.2573 13.5674 39.2543 13.2288 39.3502C12.192 39.638 11.5868 40.7083 11.8744 41.7456Z" fill="#C0DA67"/>
<path d="M11.2721 32.9915C9.83376 27.817 13.8521 18.0257 21.9726 13.4807C34.7707 6.32158 41.5548 15.0817 41.9054 15.1986C41.9054 15.1986 29.8504 12.3655 26.9768 22.7355C24.1031 33.1055 19.4376 35.4589 19.4376 35.4589C14.736 37.4195 12.0991 35.9715 11.2721 32.9915ZM9.39627 33.5132C9.93564 35.4529 11.0653 36.8889 12.6625 37.6654C14.6671 38.6397 17.1992 38.5018 20.1837 37.2546C20.2256 37.2367 20.2706 37.2157 20.3125 37.1947C20.8699 36.9129 25.8321 34.1368 28.8496 23.2541C29.8384 19.6925 32.1278 17.6449 35.8494 16.9944C38.75 16.4877 41.4289 17.0873 41.4559 17.0933C42.4687 17.3331 43.4935 16.7275 43.7752 15.7262C43.8741 15.3725 43.8711 15.0097 43.7782 14.6769C43.6643 14.2662 43.4186 13.9005 43.074 13.6396C43.047 13.6126 43.0171 13.5827 42.9811 13.5497C37.093 7.7816 29.2931 7.15502 21.0227 11.7809C12.2729 16.6766 7.66728 27.2924 9.39627 33.5132Z" fill="#C0DA67"/>
<path d="M53.9723 37.0686C53.6936 37.9081 53.388 38.6965 53.0644 39.443C54.6945 39.8508 56.0669 41.0979 56.5493 42.8367C57.2655 45.409 55.7582 48.0742 53.1872 48.7907C51.2485 49.3303 49.2588 48.6078 48.0902 47.1178C46.9126 48.362 46.0765 48.9496 46.0765 48.9496L46.0496 48.9676C47.8984 51.2011 50.9488 52.2654 53.9214 51.4379C57.9547 50.3167 60.3159 46.1345 59.1952 42.0962C58.4491 39.4101 56.3485 37.4674 53.8375 36.7988L53.9723 37.0686Z" fill="#C0DA67"/>
</svg>
