<svg width="55" height="55" viewBox="0 0 55 55" fill="none" xmlns="http://www.w3.org/2000/svg">
<path d="M49.1071 11.4583H43.2143V4.58333C43.2143 3.36776 42.8004 2.20197 42.0636 1.34243C41.3269 0.482885 40.3276 0 39.2857 0H15.7143C14.6724 0 13.6731 0.482885 12.9364 1.34243C12.1996 2.20197 11.7857 3.36776 11.7857 4.58333V11.4583H5.89286C4.32997 11.4583 2.8311 12.1827 1.72598 13.472C0.620853 14.7613 0 16.51 0 18.3333V50.4167C0 51.6322 0.413902 52.798 1.15065 53.6576C1.8874 54.5171 2.88665 55 3.92857 55H51.0714C52.1133 55 53.1126 54.5171 53.8493 53.6576C54.5861 52.798 55 51.6322 55 50.4167V18.3333C55 16.51 54.3791 14.7613 53.274 13.472C52.1689 12.1827 50.67 11.4583 49.1071 11.4583ZM15.7143 4.58333H39.2857V11.4583H15.7143V4.58333ZM51.0714 50.4167H3.92857V29.7917H19.6429V41.25H35.3571V29.7917H51.0714V50.4167ZM23.5714 29.7917H31.4286V36.6667H23.5714V29.7917ZM3.92857 25.2083V18.3333C3.92857 17.7255 4.13552 17.1427 4.5039 16.7129C4.87227 16.2831 5.3719 16.0417 5.89286 16.0417H49.1071C49.6281 16.0417 50.1277 16.2831 50.4961 16.7129C50.8645 17.1427 51.0714 17.7255 51.0714 18.3333V25.2083H3.92857Z" fill="#C0DA67"/>
</svg>
