<svg width="61" height="60" viewBox="0 0 61 60" fill="none" xmlns="http://www.w3.org/2000/svg">
<path fill-rule="evenodd" clip-rule="evenodd" d="M18.5012 48C15.1895 48 12.5318 50.685 12.5318 54C12.5318 57.312 15.1895 60 18.5012 60C21.8158 60 24.5006 57.312 24.5006 54C24.5006 50.685 21.8158 48 18.5012 48ZM48.4982 48C45.1865 48 42.5288 50.685 42.5288 54C42.5288 57.312 45.1865 60 48.4982 60C51.8128 60 54.4976 57.312 54.4976 54C54.4976 50.685 51.8128 48 48.4982 48ZM6.5024 0H0.5V5.997H6.5024L17.2953 28.761L13.2367 36.114C12.7688 36.975 12.5018 37.959 12.5018 39C12.5018 42.312 15.1895 45 18.5012 45H54.4976V39H19.7701C19.3561 39 19.0231 38.667 19.0231 38.25L19.1131 37.887L21.8069 33H44.1516C46.4074 33 48.3752 31.755 49.4011 29.913L60.122 10.446C60.362 10.02 60.5 9.525 60.5 9C60.5 7.341 59.1561 5.997 57.4973 5.997H13.1407L11.9229 3.435C10.966 1.404 8.89616 0 6.5024 0Z" fill="#C0DA67"/>
</svg>
