<svg width="60" height="60" viewBox="0 0 60 60" fill="none" xmlns="http://www.w3.org/2000/svg">
<path fill-rule="evenodd" clip-rule="evenodd" d="M34.7621 15.724C33.8267 16.3746 32.7716 16.8318 31.6582 17.0689C30.5448 17.306 29.3955 17.3183 28.2774 17.105C27.1592 16.8917 26.0946 16.4571 25.1457 15.8266C24.1967 15.1961 23.3825 14.3823 22.7504 13.4327C22.1183 12.483 21.6811 11.4166 21.4642 10.2957C21.2474 9.17474 21.2552 8.02168 21.4873 6.9038C21.7194 5.78592 22.1712 4.72562 22.8161 3.78476C23.4611 2.84391 24.2863 2.04134 25.2438 1.42391C27.1341 0.171293 29.4418 -0.279591 31.6625 0.169816C33.8833 0.619223 35.8363 1.93237 37.0948 3.8222C38.3532 5.71204 38.8148 8.02485 38.3785 10.2551C37.9422 12.4853 36.6435 14.4515 34.7664 15.724H34.7621ZM32.3836 5.00107C31.9169 4.66423 31.3874 4.42505 30.8266 4.29777C30.2658 4.17048 29.6853 4.1577 29.1195 4.26018C28.5537 4.36265 28.0142 4.5783 27.5332 4.89427C27.0522 5.21024 26.6395 5.62008 26.3197 6.09939C25.9998 6.57869 25.7794 7.11766 25.6715 7.68421C25.5636 8.25076 25.5704 8.8333 25.6915 9.39716C25.8126 9.96101 26.0456 10.4946 26.3766 10.9663C26.7076 11.4379 27.1298 11.8379 27.618 12.1425C28.5613 12.7174 29.6894 12.905 30.7671 12.6662C31.8449 12.4275 32.7893 11.7807 33.4036 10.8608C34.0178 9.94079 34.2546 8.81853 34.0646 7.72775C33.8746 6.63698 33.2725 5.66181 32.3836 5.00537V5.00107ZM43.569 5.13006C44.805 4.29597 46.2923 3.92035 47.7746 4.06789C49.257 4.21542 50.6416 4.87688 51.6902 5.93836C52.4374 6.69399 52.9884 7.62201 53.2948 8.64102C53.6012 9.66003 53.6537 10.7389 53.4476 11.783C53.2416 12.8271 52.7833 13.8045 52.113 14.6296C51.4428 15.4546 50.5809 16.102 49.6031 16.5151C48.4288 17.0077 47.1346 17.1374 45.8863 16.8877C44.638 16.638 43.4924 16.0202 42.5962 15.1134C41.9226 14.4342 41.407 13.614 41.0863 12.7115C40.7656 11.809 40.6477 10.8465 40.741 9.89293C40.8344 8.93937 41.1367 8.01831 41.6264 7.19566C42.116 6.37301 42.7808 5.66912 43.5733 5.13436L43.569 5.13006ZM45.6261 12.0522C46.0285 12.4542 46.5735 12.6793 47.1413 12.6781C47.4225 12.6775 47.7008 12.6213 47.9603 12.5129C48.2198 12.4044 48.4555 12.2456 48.6539 12.0458C48.8523 11.8459 49.0095 11.6088 49.1165 11.348C49.2235 11.0871 49.2783 10.8077 49.2777 10.5256C49.2771 10.2436 49.2212 9.96439 49.113 9.70403C49.0049 9.44366 48.8467 9.20721 48.6474 9.00819C48.2484 8.60559 47.709 8.37434 47.1432 8.36327C46.8606 8.36269 46.5806 8.41833 46.3195 8.52697C46.0585 8.6356 45.8214 8.79508 45.6222 8.99619C45.4229 9.1973 45.2654 9.43603 45.1586 9.6986C45.0519 9.96117 44.9981 10.2424 45.0004 10.5259C45.0018 11.0985 45.2263 11.6478 45.6261 12.0565V12.0522ZM9.38708 49.3631H17.144V53.6841H9.38708C8.02916 53.6718 6.73151 53.1198 5.7786 52.1492C4.82203 51.175 4.28626 49.8621 4.28721 48.4946V40.7125C3.71022 40.6932 3.14311 40.5567 2.62014 40.3114C2.09718 40.066 1.62919 39.7169 1.24444 39.2851C0.835609 38.8696 0.514757 38.3755 0.301177 37.8325C0.0875963 37.2894 -0.0143005 36.7086 0.00161429 36.125V26.7435C0.0144711 24.7142 0.815878 22.7751 2.23013 21.3348C3.64009 19.9117 5.54718 19.0991 7.54427 19.0862H15.4298C14.3661 20.357 13.5649 21.8272 13.0727 23.4114H7.54427C6.67446 23.4365 5.84687 23.7932 5.23005 24.4089C4.62416 25.0339 4.2858 25.8717 4.28721 26.7435V36.34H8.57281V48.4903C8.56287 48.6074 8.57674 48.7254 8.61357 48.837C8.65041 48.9485 8.70944 49.0515 8.78709 49.1395C8.95937 49.2731 9.16944 49.3483 9.38708 49.3545V49.3631ZM40.6719 21.3391C39.9707 20.6287 39.1364 20.0644 38.2171 19.6785C37.2978 19.2926 36.3115 19.0928 35.3149 19.0905H24.6867C22.6888 19.1065 20.7784 19.9149 19.3725 21.3391C17.9583 22.7794 17.1569 24.7185 17.144 26.7478V40.4116C17.1379 41.5848 17.5831 42.7152 18.3868 43.5674C18.7721 43.9986 19.2402 44.3474 19.763 44.5926C20.2859 44.8379 20.8528 44.9747 21.4296 44.9948V54.9825C21.4256 55.6642 21.5561 56.34 21.8135 56.9709C22.0709 57.6018 22.4502 58.1754 22.9296 58.6586C23.701 59.3809 24.6738 59.8495 25.7152 60H34.2864C35.4918 59.8412 36.5962 59.2411 37.3873 58.3149C38.1784 57.3887 38.6003 56.2019 38.572 54.9825V44.9905C39.149 44.9712 39.7161 44.8347 40.2391 44.5894C40.762 44.344 41.23 43.9949 41.6148 43.5631C42.0233 43.1483 42.344 42.6549 42.5575 42.1126C42.7711 41.5702 42.8732 40.9902 42.8576 40.4073V26.7435C42.8606 24.7235 42.0762 22.7824 40.6719 21.3348V21.3391ZM38.572 40.6222H34.2864V54.9825C34.2823 55.2091 34.19 55.4251 34.0293 55.5844C33.9561 55.6713 33.8638 55.7398 33.7597 55.7846C33.6555 55.8294 33.5424 55.8492 33.4293 55.8424H26.5295C26.3055 55.8319 26.0935 55.738 25.935 55.5789C25.7764 55.4199 25.6828 55.2072 25.6724 54.9825V40.6222H21.4296V26.7435C21.4296 25.8707 21.7682 25.0323 22.3724 24.4089C22.9893 23.7932 23.8169 23.4365 24.6867 23.4114H35.3149C35.9642 23.4229 36.5959 23.6243 37.1326 23.9909C37.6693 24.3576 38.0877 24.8734 38.3363 25.4752C38.4995 25.8777 38.5796 26.3091 38.572 26.7435V40.6222ZM50.6145 53.6798H42.8576V49.3588H50.5717C50.7893 49.3526 50.9994 49.2774 51.1717 49.1438C51.258 49.0592 51.3255 48.9572 51.3698 48.8446C51.4141 48.732 51.4342 48.6112 51.4288 48.4903V36.34H55.7144V26.7435C55.7158 25.8717 55.3775 25.0339 54.7716 24.4089C54.1547 23.7932 53.3271 23.4365 52.4573 23.4114H46.9289C46.4369 21.8271 45.6357 20.3568 44.5718 19.0862H52.4573C54.4547 19.1045 56.3643 19.9125 57.7715 21.3348C59.1857 22.7751 59.9871 24.7142 60 26.7435V36.125C60 37.2988 59.5586 38.4252 58.7615 39.2765C57.9643 40.1321 56.8758 40.6437 55.7144 40.7082V48.4903C55.7144 49.8618 55.1787 51.1732 54.223 52.1448C53.2701 53.1155 51.9725 53.6675 50.6145 53.6798ZM12.8584 4.03799C11.5831 4.03651 10.3365 4.41712 9.27821 5.13104C8.21994 5.84496 7.39829 6.85967 6.91857 8.0451C6.43443 9.23012 6.30875 10.5319 6.55719 11.7881C6.80564 13.0443 7.41723 14.1993 8.31568 15.1091C9.21379 16.0179 10.3615 16.6374 11.6123 16.8886C12.8631 17.1398 14.1601 17.0112 15.3377 16.5192C16.5152 16.0273 17.5199 15.1943 18.2233 14.1268C18.9268 13.0593 19.297 11.8056 19.2868 10.5259C19.2868 8.80611 18.6097 7.15511 17.4011 5.93836C16.8061 5.33701 16.0984 4.85955 15.3188 4.53342C14.5392 4.20729 13.7031 4.03893 12.8584 4.03799ZM12.8584 12.6885C12.5758 12.6891 12.2958 12.6335 12.0347 12.5248C11.7737 12.4162 11.5366 12.2567 11.3374 12.0556C11.1381 11.8545 10.9806 11.6158 10.8739 11.3532C10.7671 11.0906 10.7133 10.8095 10.7156 10.5259C10.7167 9.95491 10.9424 9.40743 11.3437 9.00247C11.7449 8.59751 12.2893 8.3678 12.8584 8.36327C13.4258 8.37329 13.967 8.60476 14.3671 9.00854C14.7671 9.41232 14.9946 9.95661 15.0012 10.5259C15.0001 11.0969 14.7744 11.6444 14.3731 12.0493C13.9719 12.4543 13.4275 12.684 12.8584 12.6885Z" fill="#C0DA67"/>
</svg>
