<svg width="45" height="60" viewBox="0 0 45 60" fill="none" xmlns="http://www.w3.org/2000/svg">
<path d="M11.6284 42.4958C10.6327 41.4775 11.1518 41.7646 8.75014 41.1072C7.66047 40.8083 6.70256 40.2341 5.83632 39.5462L0.637725 52.5819C0.134709 53.844 1.07428 55.2151 2.40573 55.1635L8.44306 54.928L12.5955 59.4138C13.5122 60.4029 15.1209 60.0947 15.6239 58.8326L21.5879 43.8774C20.3459 44.5852 18.9674 45 17.542 45C15.3077 45 13.2085 44.1106 11.6284 42.4958ZM44.3623 52.5819L39.1637 39.5462C38.2974 40.2353 37.3395 40.8083 36.2499 41.1072C33.8356 41.7681 34.365 41.4798 33.3716 42.4958C31.7915 44.1106 29.6912 45 27.4568 45C26.0314 45 24.653 44.584 23.4109 43.8774L29.3749 58.8326C29.8779 60.0947 31.4878 60.4029 32.4033 59.4138L36.5569 54.928L42.5943 55.1635C43.9257 55.2151 44.8653 53.8428 44.3623 52.5819ZM30.6353 39.8439C32.3862 38.0217 32.5867 38.1787 35.08 37.4838C36.6715 37.0397 37.9159 35.7448 38.3421 34.0878C39.1992 30.7597 38.9769 31.1617 41.3155 28.7265C42.4808 27.5137 42.9357 25.7454 42.5095 24.0884C41.6536 20.7626 41.6524 21.2267 42.5095 17.8975C42.9357 16.2405 42.4808 14.4721 41.3155 13.2593C38.9769 10.8242 39.1992 11.2249 38.3421 7.89805C37.9159 6.24106 36.6715 4.94616 35.08 4.50203C31.8854 3.61025 32.2704 3.84345 29.9295 1.40717C28.7642 0.1943 27.065 -0.2803 25.4734 0.163832C22.28 1.05444 22.7257 1.05561 19.5266 0.163832C17.935 -0.2803 16.2358 0.193129 15.0705 1.40717C12.7319 3.84227 13.1169 3.61025 9.92117 4.50203C8.32963 4.94616 7.08526 6.24106 6.65902 7.89805C5.80309 11.2249 6.02423 10.8242 3.68561 13.2593C2.52031 14.4721 2.06427 16.2405 2.49166 17.8975C3.34759 21.2208 3.34874 20.7568 2.49166 24.0872C2.06542 25.7442 2.52031 27.5125 3.68561 28.7265C6.02423 31.1617 5.80194 30.7597 6.65902 34.0878C7.08526 35.7448 8.32963 37.0397 9.92117 37.4838C12.4855 38.1986 12.6769 38.0861 14.3647 39.8439C15.8806 41.4224 18.2421 41.7048 20.064 40.5259C20.7925 40.0529 21.6376 39.8017 22.5006 39.8017C23.3635 39.8017 24.2086 40.0529 24.9372 40.5259C26.7579 41.7048 29.1194 41.4224 30.6353 39.8439ZM11.6903 20.6208C11.6903 14.4065 16.5303 9.36873 22.5 9.36873C28.4697 9.36873 33.3097 14.4065 33.3097 20.6208C33.3097 26.8352 28.4697 31.873 22.5 31.873C16.5303 31.873 11.6903 26.8352 11.6903 20.6208Z" fill="#C0DA67"/>
</svg>
