<svg width="25" height="25" viewBox="0 0 25 25" fill="none" xmlns="http://www.w3.org/2000/svg">
<g clip-path="url(#clip0)">
<path fill-rule="evenodd" clip-rule="evenodd" d="M24 12.5572C24 6.16692 18.8515 0.986816 12.5014 0.986816C6.14848 0.988254 1 6.16692 1 12.5587C1 18.3324 5.2056 23.1187 10.7019 23.9868V15.9019H7.78415V12.5587H10.7048V10.0074C10.7048 7.10836 12.4224 5.50719 15.0484 5.50719C16.3075 5.50719 17.6226 5.73285 17.6226 5.73285V8.57874H16.1724C14.7451 8.57874 14.2995 9.47132 14.2995 10.3869V12.5572H17.4875L16.9787 15.9005H14.2981V23.9854C19.7944 23.1172 24 18.331 24 12.5572Z" fill="#C3C3C4"/>
</g>
<defs>
<clipPath id="clip0">
<rect width="24" height="24" fill="white" transform="translate(0.5 0.986816)"/>
</clipPath>
</defs>
</svg>
