<svg width="25" height="25" viewBox="0 0 25 25" fill="none" xmlns="http://www.w3.org/2000/svg">
<path d="M13 1.98682C10.0149 1.98682 9.6395 2.00057 8.46663 2.05282C7.29375 2.10782 6.49487 2.29207 5.795 2.56432C5.06088 2.84044 4.39593 3.27358 3.84663 3.83344C3.2871 4.38302 2.85402 5.0479 2.5775 5.78182C2.30525 6.48032 2.11963 7.28057 2.066 8.44932C2.01375 9.62494 2 9.99894 2 12.9882C2 15.9747 2.01375 16.3487 2.066 17.5216C2.121 18.6931 2.30525 19.4919 2.5775 20.1918C2.85938 20.9151 3.23475 21.5283 3.84663 22.1402C4.45713 22.7521 5.07037 23.1288 5.79363 23.4093C6.49487 23.6816 7.29238 23.8672 8.46388 23.9208C9.63813 23.9731 10.0121 23.9868 13 23.9868C15.9879 23.9868 16.3605 23.9731 17.5347 23.9208C18.7049 23.8658 19.5065 23.6816 20.2064 23.4093C20.94 23.1331 21.6045 22.6999 22.1534 22.1402C22.7652 21.5283 23.1406 20.9151 23.4225 20.1918C23.6934 19.4919 23.879 18.6931 23.934 17.5216C23.9862 16.3487 24 15.9747 24 12.9868C24 9.99894 23.9862 9.62494 23.934 8.45069C23.879 7.28057 23.6934 6.48032 23.4225 5.78182C23.146 5.04788 22.7129 4.383 22.1534 3.83344C21.6042 3.27337 20.9392 2.8402 20.205 2.56432C19.5037 2.29207 18.7035 2.10644 17.5334 2.05282C16.3591 2.00057 15.9865 1.98682 12.9973 1.98682H13.0014H13ZM12.0141 3.96957H13.0014C15.9384 3.96957 16.2863 3.97919 17.4454 4.03282C18.5179 4.08094 19.1009 4.26107 19.4886 4.41094C20.0015 4.61032 20.3686 4.84957 20.7536 5.23457C21.1386 5.61957 21.3765 5.98532 21.5759 6.49957C21.7271 6.88594 21.9059 7.46894 21.954 8.54144C22.0076 9.70057 22.0186 10.0484 22.0186 12.9841C22.0186 15.9197 22.0076 16.2689 21.954 17.4281C21.9059 18.5006 21.7257 19.0822 21.5759 19.4699C21.3995 19.9476 21.118 20.3794 20.7522 20.7336C20.3672 21.1186 20.0015 21.3564 19.4873 21.5558C19.1023 21.7071 18.5192 21.8858 17.4454 21.9353C16.2863 21.9876 15.9384 21.9999 13.0014 21.9999C10.0644 21.9999 9.71513 21.9876 8.556 21.9353C7.4835 21.8858 6.90188 21.7071 6.51412 21.5558C6.03631 21.3797 5.60405 21.0987 5.24913 20.7336C4.88303 20.3789 4.60112 19.9466 4.42412 19.4686C4.27425 19.0822 4.09413 18.4992 4.046 17.4267C3.99375 16.2676 3.98275 15.9197 3.98275 12.9813C3.98275 10.0443 3.99375 9.69782 4.046 8.53869C4.0955 7.46619 4.27425 6.88319 4.4255 6.49544C4.62488 5.98257 4.86412 5.61544 5.24913 5.23044C5.63412 4.84544 5.99988 4.60757 6.51412 4.40819C6.90188 4.25694 7.4835 4.07819 8.556 4.02869C9.57075 3.98194 9.964 3.96819 12.0141 3.96682V3.96957ZM18.8726 5.79557C18.6993 5.79557 18.5276 5.82971 18.3675 5.89605C18.2073 5.96238 18.0618 6.05961 17.9392 6.18219C17.8167 6.30476 17.7194 6.45027 17.6531 6.61042C17.5868 6.77057 17.5526 6.94222 17.5526 7.11557C17.5526 7.28891 17.5868 7.46056 17.6531 7.62071C17.7194 7.78086 17.8167 7.92637 17.9392 8.04895C18.0618 8.17152 18.2073 8.26875 18.3675 8.33509C18.5276 8.40142 18.6993 8.43557 18.8726 8.43557C19.2227 8.43557 19.5585 8.2965 19.806 8.04895C20.0536 7.8014 20.1926 7.46565 20.1926 7.11557C20.1926 6.76548 20.0536 6.42973 19.806 6.18219C19.5585 5.93464 19.2227 5.79557 18.8726 5.79557ZM13.0014 7.33832C12.2521 7.32663 11.508 7.46411 10.8123 7.74276C10.1167 8.02141 9.48346 8.43566 8.94946 8.9614C8.41546 9.48713 7.99138 10.1138 7.70191 10.805C7.41244 11.4963 7.26336 12.2381 7.26336 12.9875C7.26336 13.7369 7.41244 14.4788 7.70191 15.17C7.99138 15.8612 8.41546 16.4879 8.94946 17.0136C9.48346 17.5393 10.1167 17.9536 10.8123 18.2322C11.508 18.5109 12.2521 18.6484 13.0014 18.6367C14.4844 18.6136 15.8988 18.0082 16.9393 16.9513C17.9799 15.8944 18.5631 14.4707 18.5631 12.9875C18.5631 11.5043 17.9799 10.0806 16.9393 9.02372C15.8988 7.96681 14.4844 7.36145 13.0014 7.33832ZM13.0014 9.31969C13.974 9.31969 14.9067 9.70605 15.5944 10.3938C16.2821 11.0815 16.6685 12.0142 16.6685 12.9868C16.6685 13.9594 16.2821 14.8921 15.5944 15.5799C14.9067 16.2676 13.974 16.6539 13.0014 16.6539C12.0288 16.6539 11.096 16.2676 10.4083 15.5799C9.72061 14.8921 9.33425 13.9594 9.33425 12.9868C9.33425 12.0142 9.72061 11.0815 10.4083 10.3938C11.096 9.70605 12.0288 9.31969 13.0014 9.31969Z" fill="#C3C3C4"/>
</svg>
