<svg width="25" height="20" viewBox="0 0 25 20" fill="none" xmlns="http://www.w3.org/2000/svg">
<g clip-path="url(#clip0)">
<path d="M8.91075 18.9868C17.213 18.9868 21.7546 12.06 21.7546 6.06351C21.7546 5.86967 21.7546 5.67306 21.7464 5.47923C22.6306 4.8347 23.3937 4.03675 24 3.12274C23.1741 3.48944 22.2988 3.73111 21.4026 3.83993C22.3466 3.27177 23.0536 2.37781 23.3923 1.32422C22.5054 1.85329 21.5346 2.22469 20.5226 2.42216C19.8423 1.69254 18.9419 1.20919 17.9611 1.04698C16.9803 0.884762 15.9737 1.05274 15.0973 1.52489C14.2209 1.99704 13.5236 2.74701 13.1134 3.65864C12.7031 4.57027 12.6029 5.59267 12.8281 6.56748C11.0334 6.47686 9.27762 6.00739 7.67468 5.1895C6.07175 4.37162 4.65744 3.22359 3.5235 1.81989C2.94784 2.82102 2.77216 4.00525 3.03214 5.13208C3.29211 6.25891 3.96825 7.24387 4.92325 7.88695C4.20762 7.86246 3.50772 7.66896 2.88 7.32205V7.38436C2.88123 8.43312 3.24205 9.44929 3.90145 10.2611C4.56086 11.0729 5.4784 11.6306 6.499 11.8398C6.11161 11.9473 5.71144 12.0008 5.30963 11.999C5.02635 11.9999 4.74365 11.9735 4.46537 11.9201C4.75383 12.8229 5.3155 13.6123 6.07171 14.1776C6.82793 14.7429 7.74081 15.0559 8.6825 15.0727C7.08276 16.3379 5.10668 17.0241 3.0725 17.0208C2.71407 17.0223 2.35588 17.0015 2 16.9585C4.06458 18.2838 6.46228 18.9876 8.91075 18.9868Z" fill="#C3C3C4"/>
</g>
<defs>
<clipPath id="clip0">
<rect width="24" height="19.7647" fill="white" transform="translate(0.5 0.104492)"/>
</clipPath>
</defs>
</svg>
